<?xml version="1.0" encoding="UTF-8"?>
<svg
  width="310px"
  height="310px"
  viewBox="0 0 310 208"
  version="1.1"
  xmlns="http://www.w3.org/2000/svg"
  xmlns:xlink="http://www.w3.org/1999/xlink">
    <defs></defs>
    <g
      id="Page-1"
      stroke="none"
      stroke-width="1"
      fill="none"
      fill-rule="evenodd">
        <g
          id="xor"
          transform="translate(3.000000, 2.000000)"
          fill="#FFFFFF"
          fill-rule="nonzero"
          stroke="#1E3D58"
          stroke-width="5.04988799">
            <path
              d="M151.97149,14.4169607 C166.843083,5.83292373 184.109216,0.91998 202.52533,0.91998 C258.36556,0.91998 303.63301,46.0889508 303.63301,101.8077 C303.63301,157.526449 258.36556,202.69542 202.52533,202.69542 C184.109216,202.69542 166.843083,197.782476 151.97149,189.198439 C137.099897,197.782476 119.833764,202.69542 101.41765,202.69542 C45.5774202,202.69542 0.30997,157.526449 0.30997,101.8077 C0.30997,46.0889508 45.5774202,0.91998 101.41765,0.91998 C119.833764,0.91998 137.099897,5.83292373 151.97149,14.4169607 Z M151.97149,14.4169607 C121.750335,31.8609226 101.41765,64.4650005 101.41765,101.8077 C101.41765,139.1504 121.750335,171.754477 151.97149,189.198439 C182.192645,171.754477 202.52533,139.1504 202.52533,101.8077 C202.52533,64.4650005 182.192645,31.8609226 151.97149,14.4169607 Z"
              id="Combined-Shape">
            </path>
        </g>
    </g>
</svg>